PathFileType	4	(X/Y/Z)	D:\TRACE\v60_Jaco2_6-2-23\BothDRS_Motion3_2-v60.trc
DataRate	CameraRate	NumFrames	NumMarkers	Units	OrigDataRate	OrigDataStartFrame	OrigNumFrames
100.00	100.00	      21	9	mm	100.00	5251	      7000
Frame#	Time	front left toe			Front right toe			aft left toe			aft right toe			Arm			FL body			FR body			AL Body			AR Body			
		X1	Y1	Z1	X2	Y2	Z2	X3	Y3	Z3	X4	Y4	Z4	X5	Y5	Z5	X6	Y6	Z6	X7	Y7	Z7	X8	Y8	Z8	X9	Y9	Z9	

5251	52.500	-219.75581	-0.78166	-233.42665	163.78676	32.50882	-213.43944	-177.05380	71.16711	412.89746	159.20724	36.10759	388.31039	18.85790	1099.66846	-595.31421	-96.78480	494.32870	-412.09045	61.64350	495.42609	-410.95517	-95.82927	586.04816	527.99774	55.98407	578.23047	529.34924	
5252	52.510	-219.33156	-1.07383	-233.30959	165.64194	44.89867	-215.46599	-178.43593	83.23010	411.42291	159.51987	36.11790	388.44629	20.38792	1100.06128	-595.39380	-96.53980	493.85330	-412.22726	61.65379	494.95789	-411.15302	-95.90536	586.17560	527.51898	55.98652	578.49103	529.07306	
5253	52.520	-219.04150	-1.18102	-233.58598	167.80946	58.40014	-216.70354	-182.08598	95.54182	409.06134	159.81657	36.07057	388.16348	22.26828	1099.30249	-596.05481	-96.48789	493.53815	-412.39413	62.40469	494.62781	-411.67044	-96.00474	585.99091	527.29517	55.72043	578.38208	528.79272	
5254	52.530	-218.46571	-1.62031	-233.67322	169.77626	71.15253	-218.37616	-186.57002	108.06433	406.26120	160.38704	36.33396	388.11993	22.23545	1098.16309	-596.36377	-96.51471	493.14532	-412.60425	62.28997	494.47565	-411.89856	-96.06821	585.69452	527.04871	55.72306	578.06635	528.49176	
5255	52.540	-218.19412	-1.90821	-233.72087	171.38936	83.73160	-219.95464	-190.10423	119.95132	403.94412	160.99901	36.55473	388.23904	22.04449	1096.70544	-596.89020	-96.48936	492.89694	-412.74951	62.36874	494.17328	-412.11829	-95.95543	585.67664	526.94366	55.59323	577.88757	528.27588	
5256	52.550	-218.04942	-1.81274	-233.46909	171.86166	95.49849	-221.48366	-192.44864	132.09787	401.48956	161.44557	36.62543	388.21106	21.12737	1095.90234	-597.21997	-96.19173	492.59344	-412.79929	62.35361	493.90475	-412.30972	-95.82619	585.82385	526.88300	55.73301	577.97168	528.14368	
5257	52.560	-217.72362	-1.87372	-233.40118	172.35109	106.43993	-222.56682	-194.03958	143.15887	398.79279	161.85173	36.64586	388.03204	20.52714	1095.29211	-597.61621	-95.92284	492.25467	-412.89407	62.64708	493.52722	-412.38565	-95.38380	586.10913	526.80981	56.22683	578.38373	527.94604	
5258	52.570	-217.36745	-1.99022	-233.36322	172.84563	116.40865	-223.78864	-194.88161	153.80914	396.60043	162.18877	36.61935	388.09146	20.90040	1094.87805	-597.90234	-95.64455	491.73859	-413.00516	62.49959	493.01904	-412.27289	-95.07346	586.37146	526.59607	56.78064	578.77618	527.86023	
5259	52.580	-217.04724	-2.14837	-233.31676	173.34671	123.98865	-225.42003	-195.78401	162.36154	394.57910	162.61659	36.81082	388.00757	21.51298	1094.30908	-598.06561	-95.38577	491.32828	-412.93826	63.38816	492.42407	-412.29483	-94.70182	586.64508	526.35706	57.19870	579.12158	527.79346	
5260	52.590	-216.77530	-2.22333	-233.33829	174.89372	128.93472	-225.36259	-197.24962	167.70993	394.01538	162.95021	36.81974	388.02948	21.86964	1093.79065	-598.48358	-95.62201	491.18887	-413.14282	63.47271	492.19507	-412.22031	-93.52666	587.43469	526.49567	57.46323	579.45435	527.84058	
5261	52.600	-216.11069	-2.41820	-233.10735	176.17416	130.33739	-225.90862	-198.20213	170.23163	393.29401	163.40173	36.79477	387.95074	22.07854	1093.13184	-598.69019	-95.42458	490.99731	-412.81345	63.75526	492.05252	-412.06122	-93.41434	587.59204	526.57434	58.64516	579.93329	527.90540	
5262	52.610	-215.78601	-2.52797	-233.16608	177.77826	128.79712	-225.63824	-199.21858	169.79845	393.36499	164.02486	36.87164	387.82672	22.89163	1092.65894	-599.01221	-95.18928	490.90454	-412.64899	63.93032	491.93918	-411.97409	-92.35782	587.90857	526.89343	59.51992	580.31189	527.92902	
5263	52.620	-215.40039	-2.61798	-233.21849	178.58324	125.36433	-225.63795	-199.63516	167.00862	394.03464	164.46115	36.88564	387.67361	24.33244	1091.91431	-599.19904	-94.71503	490.71191	-412.39603	64.18714	491.77008	-411.85629	-91.25459	588.59369	527.16681	59.95336	580.67889	527.71582	
5264	52.630	-215.16943	-2.60265	-233.25597	179.23952	120.73215	-225.68990	-199.52261	163.39070	393.66223	164.89450	37.00900	387.60934	24.63450	1091.74048	-599.27911	-94.17141	490.59232	-411.98303	63.99703	491.71555	-411.63541	-90.36091	589.15491	527.30945	60.85296	581.20959	527.91272	
5265	52.640	-214.75484	-2.60569	-233.28404	179.94751	114.89095	-225.77377	-199.70740	158.46068	393.53183	165.11224	36.93151	387.62570	24.95280	1091.52161	-599.17926	-93.71567	490.32590	-411.74402	64.49716	491.48340	-411.39682	-89.44985	589.65753	527.58459	61.73674	581.49066	528.26801	
5266	52.650	-214.17007	-2.72711	-233.23558	180.57295	108.04144	-226.02100	-199.60558	151.99091	393.17783	165.60530	36.86639	387.61386	25.36811	1091.28406	-599.18909	-93.20450	490.15308	-411.36322	65.14261	491.09912	-411.08261	-88.43430	589.96259	527.71521	63.00580	581.74298	528.51526	
5267	52.660	-213.85803	-2.72932	-233.20860	181.06757	99.87157	-226.86722	-200.12537	144.76147	392.68790	166.25977	36.79160	387.73364	26.34410	1090.80872	-599.14471	-92.39339	489.95486	-410.92465	66.64661	490.55746	-410.83945	-87.17332	590.04437	528.16901	63.87952	581.90833	528.68658	
5268	52.670	-213.47321	-2.69476	-233.12277	182.90994	91.34936	-227.10919	-199.47256	135.54713	392.02237	166.87318	36.77536	387.84915	27.35437	1090.29773	-599.09717	-91.61395	489.75769	-410.66888	67.11085	490.36536	-410.64899	-85.97214	590.35651	528.47937	64.86613	581.94006	529.01013	
5269	52.680	-213.16977	-2.62177	-233.12613	184.37320	81.60950	-227.04930	-199.91730	126.10671	391.39832	167.13121	36.67325	387.72281	28.77510	1089.72742	-599.23773	-91.28925	489.56332	-410.34348	67.16567	490.07947	-410.12125	-84.82516	590.38147	528.67053	66.02714	581.82990	529.21790	
5270	52.690	-212.68103	-2.75856	-232.83826	185.44780	71.49271	-226.56511	-199.07082	115.31878	391.07190	167.66614	36.62630	387.61789	30.30360	1089.32861	-599.00262	-90.43197	489.35184	-409.76810	68.70215	489.49292	-409.99850	-83.47913	590.43274	529.31940	67.62659	581.77563	529.56390	
5271	52.700	-212.19928	-2.65175	-232.84532	188.31201	61.26680	-225.73734	-198.30138	104.19733	391.01895	167.91011	36.48148	387.62909	31.15002	1089.01807	-598.70514	-89.38134	489.09180	-409.29410	69.29743	489.33304	-409.77124	-82.46198	590.26453	529.46851	68.69251	581.76465	529.78668	
